<?xml version="1.0" encoding="UTF-8"?>
<svg version="1.1" xmlns="http://www.w3.org/2000/svg" width="545" height="545">
<path d="M0 0 C179.85 0 359.7 0 545 0 C545 179.85 545 359.7 545 545 C365.15 545 185.3 545 0 545 C0 365.15 0 185.3 0 0 Z M20 20 C20 58.28 20 96.56 20 136 C64.55 136 109.1 136 155 136 C155 219.49 155 302.98 155 389 C193.61 389 232.22 389 272 389 C272 267.23 272 145.46 272 20 C188.84 20 105.68 20 20 20 Z M291 20 C291 58.28 291 96.56 291 136 C368.22 136 445.44 136 525 136 C525 97.72 525 59.44 525 20 C447.78 20 370.56 20 291 20 Z M20 156 C20 277.77 20 399.54 20 525 C58.28 525 96.56 525 136 525 C136 403.23 136 281.46 136 156 C97.72 156 59.44 156 20 156 Z M291 156 C291 193.95 291 231.9 291 271 C331.92 271 372.84 271 415 271 C415 309.94 415 348.88 415 389 C451.3 389 487.6 389 525 389 C525 312.11 525 235.22 525 156 C447.78 156 370.56 156 291 156 Z M291 291 C291 368.22 291 445.44 291 525 C368.22 525 445.44 525 525 525 C525 486.72 525 448.44 525 409 C482.43 409 439.86 409 396 409 C396 370.06 396 331.12 396 291 C361.35 291 326.7 291 291 291 Z M155 409 C155 447.28 155 485.56 155 525 C193.61 525 232.22 525 272 525 C272 486.72 272 448.44 272 409 C233.39 409 194.78 409 155 409 Z " fill="#FCE057" transform="translate(0,0)"/>
</svg>
