<?xml version="1.0" encoding="UTF-8"?>
<svg version="1.1" xmlns="http://www.w3.org/2000/svg" width="3952" height="409">
<path d="M0 0 C90.09 0 180.18 0 273 0 C273 51.15 273 102.3 273 155 C230.1 155 187.2 155 143 155 C143 187.34 143 219.68 143 253 C185.9 253 228.8 253 273 253 C273 304.48 273 355.96 273 409 C182.91 409 92.82 409 0 409 C0 274.03 0 139.06 0 0 Z M19 20 C19 141.77 19 263.54 19 389 C53.65 389 88.3 389 124 389 C124 267.23 124 145.46 124 20 C89.35 20 54.7 20 19 20 Z M143 20 C143 57.95 143 95.9 143 135 C179.3 135 215.6 135 253 135 C253 97.05 253 59.1 253 20 C216.7 20 180.4 20 143 20 Z M143 273 C143 311.28 143 349.56 143 389 C179.3 389 215.6 389 253 389 C253 350.72 253 312.44 253 273 C216.7 273 180.4 273 143 273 Z " fill="#FCE057" transform="translate(948,0)"/>
<path d="M0 0 C90.09 0 180.18 0 273 0 C273 134.97 273 269.94 273 409 C182.91 409 92.82 409 0 409 C0 274.03 0 139.06 0 0 Z M19 20 C19 57.95 19 95.9 19 135 C53.32 135 87.64 135 123 135 C123 97.05 123 59.1 123 20 C88.68 20 54.36 20 19 20 Z M143 20 C143 64.55 143 109.1 143 155 C102.08 155 61.16 155 19 155 C19 232.22 19 309.44 19 389 C96.22 389 173.44 389 253 389 C253 350.72 253 312.44 253 273 C210.43 273 167.86 273 124 273 C124 266.4 124 259.8 124 253 C166.57 253 209.14 253 253 253 C253 176.11 253 99.22 253 20 C216.7 20 180.4 20 143 20 Z " fill="#FCE057" transform="translate(1765,0)"/>
<path d="M0 0 C90.09 0 180.18 0 273 0 C273 134.97 273 269.94 273 409 C182.91 409 92.82 409 0 409 C0 274.03 0 139.06 0 0 Z M19 20 C19 57.95 19 95.9 19 135 C59.92 135 100.84 135 143 135 C143 173.94 143 212.88 143 253 C179.3 253 215.6 253 253 253 C253 176.11 253 99.22 253 20 C175.78 20 98.56 20 19 20 Z M19 155 C19 232.22 19 309.44 19 389 C96.22 389 173.44 389 253 389 C253 350.72 253 312.44 253 273 C210.43 273 167.86 273 124 273 C124 234.06 124 195.12 124 155 C89.35 155 54.7 155 19 155 Z " fill="#FCE057" transform="translate(2415,0)"/>
<path d="M0 0 C90.09 0 180.18 0 273 0 C273 44.88 273 89.76 273 136 C266.4 136 259.8 136 253 136 C253 97.72 253 59.44 253 20 C216.7 20 180.4 20 143 20 C143 96.89 143 173.78 143 253 C185.9 253 228.8 253 273 253 C273 304.48 273 355.96 273 409 C182.91 409 92.82 409 0 409 C0 274.03 0 139.06 0 0 Z M19 20 C19 58.28 19 96.56 19 136 C53.65 136 88.3 136 124 136 C124 97.72 124 59.44 124 20 C89.35 20 54.7 20 19 20 Z M19 156 C19 232.89 19 309.78 19 389 C96.22 389 173.44 389 253 389 C253 350.72 253 312.44 253 273 C210.43 273 167.86 273 124 273 C124 234.39 124 195.78 124 156 C89.35 156 54.7 156 19 156 Z " fill="#FCE057" transform="translate(0,0)"/>
<path d="M0 0 C90.09 0 180.18 0 273 0 C273 134.97 273 269.94 273 409 C182.91 409 92.82 409 0 409 C0 274.03 0 139.06 0 0 Z M19 19 C19 56.95 19 94.9 19 134 C59.92 134 100.84 134 143 134 C143 172.94 143 211.88 143 252 C179.3 252 215.6 252 253 252 C253 175.11 253 98.22 253 19 C175.78 19 98.56 19 19 19 Z M19 154 C19 231.55 19 309.1 19 389 C96.22 389 173.44 389 253 389 C253 350.39 253 311.78 253 272 C210.43 272 167.86 272 124 272 C124 233.06 124 194.12 124 154 C89.35 154 54.7 154 19 154 Z " fill="#FCE057" transform="translate(2731,0)"/>
<path d="M0 0 C90.09 0 180.18 0 273 0 C273 134.97 273 269.94 273 409 C182.91 409 92.82 409 0 409 C0 274.03 0 139.06 0 0 Z M19 18 C19 55.95 19 93.9 19 133 C59.92 133 100.84 133 143 133 C143 171.94 143 210.88 143 251 C179.3 251 215.6 251 253 251 C253 174.11 253 97.22 253 18 C175.78 18 98.56 18 19 18 Z M19 153 C19 230.88 19 308.76 19 389 C96.22 389 173.44 389 253 389 C253 350.06 253 311.12 253 271 C210.43 271 167.86 271 124 271 C124 232.06 124 193.12 124 153 C89.35 153 54.7 153 19 153 Z " fill="#FCE057" transform="translate(3047,0)"/>
<path d="M0 0 C90.09 0 180.18 0 273 0 C273 134.97 273 269.94 273 409 C182.91 409 92.82 409 0 409 C0 274.03 0 139.06 0 0 Z M19 17 C19 54.95 19 92.9 19 132 C59.92 132 100.84 132 143 132 C143 170.94 143 209.88 143 250 C179.3 250 215.6 250 253 250 C253 173.11 253 96.22 253 17 C175.78 17 98.56 17 19 17 Z M19 152 C19 230.21 19 308.42 19 389 C96.22 389 173.44 389 253 389 C253 349.73 253 310.46 253 270 C210.43 270 167.86 270 124 270 C124 231.06 124 192.12 124 152 C89.35 152 54.7 152 19 152 Z " fill="#FCE057" transform="translate(3679,0)"/>
<path d="M0 0 C90.09 0 180.18 0 273 0 C273 134.97 273 269.94 273 409 C182.91 409 92.82 409 0 409 C0 274.03 0 139.06 0 0 Z M19 17 C19 54.95 19 92.9 19 132 C59.92 132 100.84 132 143 132 C143 170.94 143 209.88 143 250 C179.3 250 215.6 250 253 250 C253 173.11 253 96.22 253 17 C175.78 17 98.56 17 19 17 Z M19 152 C19 230.21 19 308.42 19 389 C96.22 389 173.44 389 253 389 C253 349.73 253 310.46 253 270 C210.43 270 167.86 270 124 270 C124 231.06 124 192.12 124 152 C89.35 152 54.7 152 19 152 Z " fill="#FCE057" transform="translate(3363,0)"/>
<path d="M0 0 C90.09 0 180.18 0 273 0 C273 134.97 273 269.94 273 409 C182.91 409 92.82 409 0 409 C0 274.03 0 139.06 0 0 Z M19 20 C19 141.77 19 263.54 19 389 C53.65 389 88.3 389 124 389 C124 344.12 124 299.24 124 253 C166.57 253 209.14 253 253 253 C253 176.11 253 99.22 253 20 C175.78 20 98.56 20 19 20 Z M143 273 C143 311.28 143 349.56 143 389 C179.3 389 215.6 389 253 389 C253 350.72 253 312.44 253 273 C216.7 273 180.4 273 143 273 Z " fill="#FCE057" transform="translate(316,0)"/>
<path d="M0 0 C90.09 0 180.18 0 273 0 C273 134.97 273 269.94 273 409 C223.83 409 174.66 409 124 409 C124 357.52 124 306.04 124 253 C166.57 253 209.14 253 253 253 C253 176.11 253 99.22 253 20 C216.7 20 180.4 20 143 20 C143 64.55 143 109.1 143 155 C95.81 155 48.62 155 0 155 C0 103.85 0 52.7 0 0 Z M19 20 C19 57.95 19 95.9 19 135 C53.65 135 88.3 135 124 135 C124 97.05 124 59.1 124 20 C89.35 20 54.7 20 19 20 Z M143 273 C143 311.28 143 349.56 143 389 C179.3 389 215.6 389 253 389 C253 350.72 253 312.44 253 273 C216.7 273 180.4 273 143 273 Z " fill="#FCE057" transform="translate(1449,0)"/>
<path d="M0 0 C96.03 0 192.06 0 291 0 C291 134.97 291 269.94 291 409 C239.85 409 188.7 409 136 409 C136 325.51 136 242.02 136 156 C91.12 156 46.24 156 0 156 C0 104.52 0 53.04 0 0 Z M20 20 C20 58.28 20 96.56 20 136 C64.55 136 109.1 136 155 136 C155 219.49 155 302.98 155 389 C193.61 389 232.22 389 272 389 C272 267.23 272 145.46 272 20 C188.84 20 105.68 20 20 20 Z " fill="#FCE057" transform="translate(2081,0)"/>
<path d="M0 0 C90.09 0 180.18 0 273 0 C273 134.97 273 269.94 273 409 C182.91 409 92.82 409 0 409 C0 274.03 0 139.06 0 0 Z M19 20 C19 141.77 19 263.54 19 389 C96.22 389 173.44 389 253 389 C253 267.23 253 145.46 253 20 C175.78 20 98.56 20 19 20 Z " fill="#FCE057" transform="translate(632,0)"/>
<path d="M0 0 C46.86 0 93.72 0 142 0 C142 134.97 142 269.94 142 409 C95.14 409 48.28 409 0 409 C0 274.03 0 139.06 0 0 Z M19 20 C19 141.77 19 263.54 19 389 C53.65 389 88.3 389 124 389 C124 267.23 124 145.46 124 20 C89.35 20 54.7 20 19 20 Z " fill="#FCE057" transform="translate(1264,0)"/>
</svg>
